<?xml version="1.0" encoding="UTF-8"?>
<svg width="66px" height="45px" viewBox="0 0 66 45" version="1.1" xmlns="http://www.w3.org/2000/svg" xmlns:xlink="http://www.w3.org/1999/xlink">
    <title>Logo</title>
    <defs>
        <rect id="path-1" x="0" y="0" width="1680" height="939.001063"></rect>
    </defs>
    <g id="Welcome" stroke="none" stroke-width="1" fill="none" fill-rule="evenodd">
        <g id="02.-Home" transform="translate(-200.000000, -59.000000)">
            <g id="Background" transform="translate(0.000000, 0.665958)">
                <mask id="mask-2" fill="white">
                    <use xlink:href="#path-1"></use>
                </mask>
                <use id="#000" fill="#000000" xlink:href="#path-1"></use>
                <path d="M1937.66156,644.246079 L1507.1027,-99.936973 C1434.53079,-225.370964 1301.77264,-295.685441 1165.6901,-295.685441 C1099.15791,-295.685441 1031.80567,-278.864023 970.350248,-243.455516 C915.662712,-211.948464 871.448561,-169.056226 838.929348,-119.4816 C838.779631,-119.698913 839.075663,-119.260891 838.929348,-119.4816 L661.997884,184.920188 C661.974065,184.960934 661.953649,185.001681 661.933233,185.042427 L231.374369,929.222083 C200.900155,981.893426 143.473478,1014.61607 81.5042519,1014.61607 C51.3634981,1014.61607 22.8492154,1006.99313 -3.25258213,991.954359 C-42.6077366,969.282456 -70.8634172,932.278053 -82.8169584,887.762755 C-94.7704996,843.240666 -88.8396649,797.098913 -66.1201105,757.822906 L364.438754,13.6398542 C394.912968,-39.0314885 452.339644,-71.7541374 514.308871,-71.7541374 C544.449625,-71.7541374 572.963907,-64.1311898 599.065705,-49.0924213 C604.492946,-45.9651452 609.685404,-42.5424586 614.677104,-38.8888766 L725.559555,-230.538949 C720.356889,-233.876748 715.058949,-237.116076 709.652124,-240.233165 L709.648721,-240.233165 C648.189893,-275.641673 580.844466,-292.46309 514.308871,-292.46309 C378.226328,-292.46309 245.471586,-222.152009 172.896271,-96.7146223 L-257.65919,647.46843 C-365.717433,834.235741 -300.995456,1075.2669 -113.839001,1183.0951 C-52.3801733,1218.50361 14.968657,1235.32503 81.5042519,1235.32503 C217.586795,1235.32503 350.34494,1165.01395 422.916852,1039.57656 L840.933515,317.073918 L840.998165,317.18597 L1015.82679,15.0116452 L1015.89144,15.048996 C1030.78147,-12.97425 1053.05528,-36.2539513 1080.93667,-52.3181675 C1107.03166,-67.350145 1135.55275,-74.9730926 1165.6935,-74.9764882 L1165.71392,-74.9764882 L1165.72072,-74.9764882 C1227.67294,-74.9764882 1285.086,-42.2572348 1315.56022,10.4175035 L1746.11908,754.600555 C1768.84204,793.873167 1774.77287,840.018316 1762.81593,884.537009 C1750.86579,929.055703 1722.60671,966.060105 1683.24815,988.732008 C1657.15316,1003.77078 1628.63547,1011.39372 1598.49472,1011.39372 C1536.52549,1011.39372 1479.09881,978.671075 1448.6212,925.999732 L1057.09764,249.275523 L929.40265,469.984476 L1257.08212,1036.35421 C1329.65403,1161.7916 1462.41217,1232.10268 1598.49472,1232.10268 C1665.03031,1232.10268 1732.37914,1215.28126 1793.83457,1179.87275 L1793.83797,1179.87275 C1980.99443,1072.04454 2045.7164,831.01339 1937.66156,644.246079" id="Logo" stroke="#141417" mask="url(#mask-2)"></path>
            </g>
            <g id="Logo" transform="translate(200.000000, 59.936238)" fill="#FFFFFF">
                <path d="M64.4981144,26.9841635 L52.142947,5.61967394 C50.0604487,2.01863359 46.2508671,0 42.3458898,0 C40.4367051,0 38.5039889,0.482920167 36.7404854,1.49945055 C35.1711909,2.40397542 33.902437,3.63535361 32.969277,5.05857413 C32.9649807,5.05233535 32.9734755,5.06491038 32.969277,5.05857413 L27.8921132,13.797538 C27.8914297,13.7987078 27.8908438,13.7998776 27.890258,13.8010473 L15.5350906,35.1654394 C14.6606131,36.6775625 13.0127172,37.6169855 11.2344698,37.6169855 C10.3695612,37.6169855 9.55132531,37.398141 8.80231721,36.9663983 C7.67299539,36.3155186 6.8621802,35.2531722 6.51916554,33.9751982 C6.17615088,32.6970292 6.34634005,31.3723618 6.99829248,30.2448007 L19.3534599,8.88031114 C20.2279373,7.36818808 21.8758333,6.42876506 23.6540806,6.42876506 C24.5189892,6.42876506 25.3372252,6.64760958 26.0862333,7.0793523 C26.2419715,7.16913217 26.3909725,7.26739287 26.5342126,7.37228228 L29.7160568,1.87026773 C29.5667629,1.77444405 29.4147351,1.68144731 29.2595827,1.59195988 L29.259485,1.59195988 C27.4958839,0.575429501 25.5633629,0.0925093336 23.6540806,0.0925093336 C19.7491033,0.0925093336 15.9396194,2.11104545 13.8570234,5.71218328 L1.50195367,27.0766728 C-1.59884809,32.4385099 0.258391265,39.3581886 5.6289678,42.4537907 C7.39256894,43.4703211 9.32518755,43.9532412 11.2344698,43.9532412 C15.1394472,43.9532412 18.9490287,41.9347051 21.0315271,38.3335673 L33.0267878,17.591493 L33.028643,17.5947099 L38.0454643,8.91969341 L38.0473195,8.92076569 C38.4745988,8.11625618 39.1137602,7.44792742 39.9138348,6.98674549 C40.6626476,6.55519773 41.4810788,6.33635321 42.3459874,6.33625573 L42.3465733,6.33625573 L42.3467686,6.33625573 C44.1245277,6.33625573 45.7720331,7.27558127 46.6465105,8.78780181 L59.0016779,30.1522914 C59.653728,31.279755 59.8239172,32.6045198 59.4808049,33.8825913 C59.1378879,35.1606629 58.326975,36.2230092 57.1975556,36.8738889 C56.4487428,37.3056316 55.6304092,37.5244762 54.7655006,37.5244762 C52.9872532,37.5244762 51.3393573,36.5850532 50.4647822,35.0729301 L39.2297583,15.6450927 L35.5654673,21.9813484 L44.9684434,38.241058 C47.0509417,41.8421958 50.8605233,43.8607319 54.7655006,43.8607319 C56.6747829,43.8607319 58.6074015,43.3778117 60.370905,42.3612814 L60.3710026,42.3612814 C65.7415792,39.2656792 67.5988185,32.3460006 64.4981144,26.9841635" id="Fill-1"></path>
            </g>
        </g>
    </g>
</svg>